<svg viewBox="0 0 950 250" fill="none" xmlns="http://www.w3.org/2000/svg">
  <path d="M27.1805 22.3047C23.3287 21.0872 21.2919 19.8541 20.4035 18.2019C19.7828 17.0476 19.8694 16.1718 20.7248 14.9538C23.7747 10.6109 37.4262 8.62339 47.5775 11.0442C49.6253 11.5326 53.2108 12.9096 52.9903 13.123C52.9223 13.1888 51.3428 13.0882 49.4801 12.8995C46.9536 12.6435 45.2022 12.6406 42.5835 12.8888C31.4747 13.9384 25.8047 18.0291 29.9284 22.0191C30.9532 23.0106 30.9532 23.0107 30.1404 22.9974C29.6933 22.9903 28.3614 22.6779 27.1805 22.3047Z" fill="#FFCCAA"/>
  <path d="M11.9675 23.6628C5.54787 21.3215 2.15321 18.9503 0.672469 15.773C-0.362074 13.5531 -0.21769 11.8689 1.20803 9.52649C6.29122 1.17486 29.0437 -2.64733 45.9625 2.00815C49.3754 2.94726 55.3514 5.59543 54.9838 6.00578C54.8705 6.13229 52.2379 5.93892 49.1336 5.57589C44.9227 5.08366 42.0036 5.07808 37.6392 5.55544C19.1245 7.57381 9.67452 15.4406 16.5473 23.1136C18.2553 25.0205 18.2553 25.0205 16.9006 24.995C16.1555 24.9813 13.9356 24.3821 11.9675 23.6644V23.6628Z" fill="#FF6600"/>
  <path d="M60.6 10.032C60.408 10.032 60.248 10.0053 60.12 9.952C59.9973 9.89333 59.8907 9.81867 59.8 9.728C59.7147 9.63733 59.6293 9.53867 59.544 9.432L57.896 7.328C57.8373 7.248 57.7893 7.19467 57.752 7.168C57.72 7.14133 57.6747 7.12533 57.616 7.12L57.632 6.928C58.1653 6.98133 58.5947 6.91733 58.92 6.736C59.2507 6.54933 59.416 6.24267 59.416 5.816C59.416 5.464 59.3093 5.224 59.096 5.096C58.8827 4.968 58.6133 4.904 58.288 4.904C57.9947 4.904 57.7973 4.944 57.696 5.024C57.6 5.09867 57.544 5.25067 57.528 5.48L57.272 9.2C57.2613 9.38667 57.2693 9.52267 57.296 9.608C57.3227 9.69333 57.3787 9.74933 57.464 9.776C57.5547 9.79733 57.68 9.81067 57.84 9.816V10H56.32V9.816C56.4213 9.81067 56.496 9.79733 56.544 9.776C56.5973 9.74933 56.6347 9.69333 56.656 9.608C56.6827 9.52267 56.7013 9.38667 56.712 9.2L56.968 5.48C56.984 5.29333 56.976 5.16 56.944 5.08C56.9173 4.99467 56.8587 4.93867 56.768 4.912C56.6827 4.88533 56.56 4.86933 56.4 4.864V4.68H57.048C57.2773 4.68 57.472 4.67733 57.632 4.672C57.792 4.66133 57.9387 4.65333 58.072 4.648C58.2107 4.64267 58.3547 4.64 58.504 4.64C58.9947 4.64 59.376 4.74133 59.648 4.944C59.92 5.14133 60.056 5.40533 60.056 5.736C60.056 5.98133 59.9867 6.20267 59.848 6.4C59.7093 6.59733 59.5227 6.76 59.288 6.888C59.0533 7.016 58.7867 7.09867 58.488 7.136V7.152L60.056 9.176C60.1947 9.352 60.3067 9.488 60.392 9.584C60.4773 9.67467 60.56 9.736 60.64 9.768C60.7253 9.8 60.8293 9.816 60.952 9.816V10C60.888 10.0107 60.8267 10.0187 60.768 10.024C60.7093 10.0293 60.6533 10.032 60.6 10.032Z" fill="black"/>
  <path d="M61.7961 10.12C61.6895 9.98133 61.6361 9.77067 61.6361 9.488C61.6361 9.34933 61.6441 9.176 61.6601 8.968C61.6815 8.76 61.7055 8.544 61.7321 8.32C61.7588 8.096 61.7801 7.89067 61.7961 7.704C61.8175 7.51733 61.8281 7.37333 61.8281 7.272C61.8281 7.16533 61.8041 7.112 61.7561 7.112C61.7028 7.112 61.6041 7.168 61.4601 7.28C61.3161 7.392 61.1748 7.52267 61.0361 7.672L60.9081 7.544C61.0041 7.42667 61.1321 7.288 61.2921 7.128C61.4521 6.968 61.6201 6.816 61.7961 6.672C61.9721 6.528 62.1241 6.424 62.2521 6.36C62.2841 6.42933 62.3081 6.52 62.3241 6.632C62.3401 6.73867 62.3481 6.85867 62.3481 6.992C62.3481 7.10933 62.3375 7.26933 62.3161 7.472C62.3001 7.66933 62.2788 7.88 62.2521 8.104C62.2255 8.32267 62.2015 8.53067 62.1801 8.728C62.1641 8.92533 62.1561 9.08533 62.1561 9.208C62.1561 9.26667 62.1641 9.32533 62.1801 9.384C62.2015 9.44267 62.2388 9.472 62.2921 9.472C62.4095 9.472 62.6121 9.31467 62.9001 9L63.0281 9.128C62.9375 9.24533 62.8201 9.37067 62.6761 9.504C62.5321 9.632 62.3828 9.752 62.2281 9.864C62.0735 9.97067 61.9295 10.056 61.7961 10.12ZM62.1321 5.52C62.0468 5.52 61.9828 5.496 61.9401 5.448C61.8975 5.39467 61.8761 5.33067 61.8761 5.256C61.8761 5.13333 61.9268 5.02133 62.0281 4.92C62.1348 4.81867 62.2495 4.768 62.3721 4.768C62.4628 4.768 62.5268 4.79467 62.5641 4.848C62.6068 4.896 62.6281 4.95733 62.6281 5.032C62.6281 5.16533 62.5748 5.28 62.4681 5.376C62.3668 5.472 62.2548 5.52 62.1321 5.52Z" fill="black"/>
  <path d="M62.9088 11.88V11.696C63.1861 11.6693 63.4075 11.5227 63.5728 11.256C63.7381 10.9947 63.8475 10.576 63.9008 10C63.9115 9.888 63.9248 9.736 63.9408 9.544C63.9568 9.352 63.9755 9.144 63.9968 8.92C64.0181 8.69067 64.0368 8.46667 64.0528 8.248C64.0741 8.024 64.0901 7.82667 64.1008 7.656C64.1115 7.48 64.1168 7.352 64.1168 7.272C64.1168 7.16533 64.0928 7.112 64.0448 7.112C63.9915 7.112 63.8928 7.168 63.7488 7.28C63.6048 7.392 63.4635 7.52267 63.3248 7.672L63.1968 7.544C63.2928 7.42667 63.4208 7.288 63.5808 7.128C63.7408 6.968 63.9088 6.816 64.0848 6.672C64.2608 6.528 64.4128 6.424 64.5408 6.36C64.5728 6.42933 64.5968 6.52 64.6128 6.632C64.6288 6.73867 64.6368 6.85867 64.6368 6.992C64.6368 7.088 64.6288 7.24267 64.6128 7.456C64.6021 7.664 64.5861 7.89867 64.5648 8.16C64.5435 8.42133 64.5221 8.68533 64.5008 8.952C64.4795 9.21333 64.4608 9.45067 64.4448 9.664C64.4288 9.872 64.4155 10.024 64.4048 10.12C64.3781 10.456 64.3008 10.7547 64.1728 11.016C64.0501 11.2827 63.8821 11.4907 63.6688 11.64C63.4555 11.7947 63.2021 11.8747 62.9088 11.88ZM64.4208 5.52C64.3355 5.52 64.2715 5.496 64.2288 5.448C64.1861 5.39467 64.1648 5.33067 64.1648 5.256C64.1648 5.13333 64.2155 5.02133 64.3168 4.92C64.4235 4.81867 64.5381 4.768 64.6608 4.768C64.7515 4.768 64.8155 4.79467 64.8528 4.848C64.8955 4.896 64.9168 4.95733 64.9168 5.032C64.9168 5.16533 64.8635 5.28 64.7568 5.376C64.6555 5.472 64.5435 5.52 64.4208 5.52Z" fill="black"/>
  <path d="M66.2852 10.12C66.1465 10.12 65.9999 10.096 65.8452 10.048C65.6959 10 65.5705 9.928 65.4692 9.832C65.3679 9.736 65.3172 9.616 65.3172 9.472C65.3172 9.33333 65.3679 9.21333 65.4692 9.112C65.5705 9.00533 65.6905 8.89333 65.8292 8.776L65.9572 8.904C65.8772 8.97867 65.8212 9.04267 65.7892 9.096C65.7625 9.14933 65.7492 9.20267 65.7492 9.256C65.7492 9.384 65.8105 9.49333 65.9332 9.584C66.0612 9.67467 66.2319 9.72 66.4452 9.72C66.6959 9.72 66.9039 9.656 67.0692 9.528C67.2345 9.4 67.3172 9.22933 67.3172 9.016C67.3172 8.87733 67.2639 8.76 67.1572 8.664C67.0505 8.568 66.8479 8.44533 66.5492 8.296C66.3999 8.22133 66.2559 8.144 66.1172 8.064C65.9839 7.984 65.8745 7.896 65.7892 7.8C65.7039 7.69867 65.6612 7.58667 65.6612 7.464C65.6612 7.31467 65.7199 7.15467 65.8372 6.984C65.9599 6.81333 66.1199 6.66667 66.3172 6.544C66.5145 6.42133 66.7332 6.36 66.9732 6.36C67.1599 6.36 67.3359 6.39733 67.5012 6.472C67.6665 6.54667 67.8079 6.66933 67.9252 6.84L67.5492 7.488L67.3892 7.408C67.4798 7.232 67.5012 7.088 67.4532 6.976C67.4105 6.85867 67.3305 6.77067 67.2132 6.712C67.0959 6.65333 66.9705 6.624 66.8372 6.624C66.6345 6.624 66.4665 6.688 66.3332 6.816C66.2052 6.93867 66.1412 7.09333 66.1412 7.28C66.1412 7.33867 66.1545 7.392 66.1812 7.44C66.2079 7.48267 66.2692 7.536 66.3652 7.6C66.4665 7.65867 66.6185 7.74133 66.8212 7.848C67.0665 7.97067 67.2532 8.072 67.3812 8.152C67.5092 8.232 67.5972 8.312 67.6452 8.392C67.6932 8.472 67.7172 8.57333 67.7172 8.696C67.7172 8.94667 67.6479 9.18133 67.5092 9.4C67.3759 9.61333 67.1999 9.78667 66.9812 9.92C66.7625 10.0533 66.5305 10.12 66.2852 10.12Z" fill="black"/>
  <path d="M69.325 10.12C69.1703 10.12 69.0237 10.08 68.885 10C68.7517 9.92533 68.6423 9.80267 68.557 9.632C68.477 9.46133 68.437 9.23733 68.437 8.96C68.437 8.624 68.4957 8.30133 68.613 7.992C68.7357 7.68267 68.8957 7.40533 69.093 7.16C69.2903 6.91467 69.5063 6.72 69.741 6.576C69.981 6.432 70.2157 6.36 70.445 6.36C70.6103 6.36 70.7517 6.39733 70.869 6.472C70.9863 6.54133 71.0903 6.63733 71.181 6.76L70.645 7.688L70.477 7.624C70.5943 7.37867 70.653 7.184 70.653 7.04C70.6583 6.896 70.6263 6.79467 70.557 6.736C70.4877 6.672 70.397 6.64 70.285 6.64C70.1143 6.64 69.9517 6.70133 69.797 6.824C69.6423 6.94667 69.5037 7.10933 69.381 7.312C69.2637 7.51467 69.1703 7.73867 69.101 7.984C69.0317 8.22933 68.997 8.472 68.997 8.712C68.997 8.99467 69.0477 9.21333 69.149 9.368C69.2503 9.52267 69.397 9.6 69.589 9.6C69.7597 9.6 69.9543 9.53333 70.173 9.4C70.397 9.26133 70.621 9.03467 70.845 8.72L71.013 8.784C70.757 9.232 70.4797 9.568 70.181 9.792C69.8823 10.0107 69.597 10.12 69.325 10.12Z" fill="black"/>
  <path d="M71.7382 10.12C71.7649 9.848 71.7942 9.52267 71.8262 9.144C71.8635 8.76 71.9009 8.35467 71.9382 7.928C71.9755 7.50133 72.0102 7.07733 72.0422 6.656C72.0742 6.23467 72.0982 5.84533 72.1142 5.488C72.1355 5.12533 72.1462 4.82667 72.1462 4.592C72.1462 4.48533 72.1222 4.432 72.0742 4.432C72.0209 4.432 71.9435 4.48533 71.8422 4.592C71.7409 4.69333 71.6209 4.82133 71.4822 4.976L71.3462 4.848C71.4422 4.72533 71.5595 4.58667 71.6982 4.432C71.8369 4.272 71.9835 4.12267 72.1382 3.984C72.2929 3.84533 72.4368 3.744 72.5702 3.68C72.6022 3.74933 72.6262 3.84 72.6422 3.952C72.6582 4.05867 72.6662 4.17867 72.6662 4.312C72.6662 4.6 72.6528 4.928 72.6262 5.296C72.6048 5.65867 72.5755 6.04267 72.5382 6.448C72.5009 6.85333 72.4609 7.264 72.4182 7.68H72.4342C72.5675 7.45067 72.7355 7.23733 72.9382 7.04C73.1462 6.83733 73.3595 6.67467 73.5782 6.552C73.8022 6.424 73.9995 6.36 74.1702 6.36C74.3355 6.36 74.4769 6.43467 74.5942 6.584C74.7169 6.73333 74.7782 7.01333 74.7782 7.424C74.7782 7.712 74.7435 8.01067 74.6742 8.32C74.6102 8.62933 74.5115 8.92 74.3782 9.192C74.2502 9.45867 74.0902 9.67733 73.8982 9.848C73.7062 10.0187 73.4875 10.1093 73.2422 10.12C73.2049 10.008 73.1995 9.89067 73.2262 9.768C73.2529 9.64 73.3142 9.54667 73.4102 9.488C73.4422 9.51467 73.4795 9.54133 73.5222 9.568C73.5649 9.58933 73.6075 9.6 73.6502 9.6C73.7515 9.6 73.8369 9.536 73.9062 9.408C73.9809 9.27467 74.0395 9.10667 74.0822 8.904C74.1302 8.70133 74.1649 8.49067 74.1862 8.272C74.2075 8.05333 74.2182 7.85333 74.2182 7.672C74.2182 7.336 74.1835 7.11467 74.1142 7.008C74.0449 6.90133 73.9542 6.848 73.8422 6.848C73.7142 6.848 73.5729 6.89333 73.4182 6.984C73.2635 7.07467 73.1142 7.19733 72.9702 7.352C72.8262 7.50667 72.7035 7.68267 72.6022 7.88C72.4582 8.15733 72.3675 8.46133 72.3302 8.792C72.2929 9.12267 72.2689 9.52533 72.2582 10C72.0822 10.016 71.9089 10.056 71.7382 10.12Z" fill="black"/>
  <path d="M76.437 10.12C76.165 10.12 75.9303 10.0213 75.733 9.824C75.541 9.62133 75.445 9.31467 75.445 8.904C75.445 8.584 75.5063 8.272 75.629 7.968C75.7517 7.664 75.9117 7.392 76.109 7.152C76.3117 6.90667 76.5357 6.71467 76.781 6.576C77.0263 6.432 77.2717 6.36 77.517 6.36C77.7997 6.36 78.037 6.46133 78.229 6.664C78.421 6.86667 78.517 7.17333 78.517 7.584C78.517 7.90933 78.453 8.224 78.325 8.528C78.2023 8.832 78.0397 9.104 77.837 9.344C77.6343 9.584 77.4103 9.77333 77.165 9.912C76.9197 10.0507 76.677 10.12 76.437 10.12ZM76.741 9.72C76.9597 9.72 77.1623 9.63733 77.349 9.472C77.5357 9.30133 77.685 9.07733 77.797 8.8C77.909 8.52267 77.9623 8.22133 77.957 7.896C77.957 7.688 77.9303 7.49867 77.877 7.328C77.8237 7.15733 77.7437 7.02133 77.637 6.92C77.5303 6.81333 77.389 6.76 77.213 6.76C76.9943 6.76 76.7917 6.84533 76.605 7.016C76.4237 7.18667 76.277 7.41067 76.165 7.688C76.0583 7.96 76.005 8.25867 76.005 8.584C76.005 8.93067 76.069 9.208 76.197 9.416C76.325 9.61867 76.5063 9.72 76.741 9.72Z" fill="black"/>
  <path d="M80.1479 10.12C79.8759 10.12 79.6413 10.0213 79.4439 9.824C79.2519 9.62133 79.1559 9.31467 79.1559 8.904C79.1559 8.584 79.2173 8.272 79.3399 7.968C79.4626 7.664 79.6226 7.392 79.8199 7.152C80.0226 6.90667 80.2466 6.71467 80.4919 6.576C80.7373 6.432 80.9826 6.36 81.2279 6.36C81.5106 6.36 81.7479 6.46133 81.9399 6.664C82.1319 6.86667 82.2279 7.17333 82.2279 7.584C82.2279 7.90933 82.1639 8.224 82.0359 8.528C81.9133 8.832 81.7506 9.104 81.5479 9.344C81.3453 9.584 81.1213 9.77333 80.8759 9.912C80.6306 10.0507 80.3879 10.12 80.1479 10.12ZM80.4519 9.72C80.6706 9.72 80.8733 9.63733 81.0599 9.472C81.2466 9.30133 81.3959 9.07733 81.5079 8.8C81.6199 8.52267 81.6733 8.22133 81.6679 7.896C81.6679 7.688 81.6413 7.49867 81.5879 7.328C81.5346 7.15733 81.4546 7.02133 81.3479 6.92C81.2413 6.81333 81.0999 6.76 80.9239 6.76C80.7053 6.76 80.5026 6.84533 80.3159 7.016C80.1346 7.18667 79.9879 7.41067 79.8759 7.688C79.7693 7.96 79.7159 8.25867 79.7159 8.584C79.7159 8.93067 79.7799 9.208 79.9079 9.416C80.0359 9.61867 80.2173 9.72 80.4519 9.72Z" fill="black"/>
  <path d="M83.3229 10.12C83.2162 9.98133 83.1629 9.77067 83.1629 9.488C83.1629 9.216 83.1735 8.912 83.1949 8.576C83.2162 8.23467 83.2429 7.88267 83.2749 7.52C83.3122 7.152 83.3469 6.78933 83.3789 6.432C83.4109 6.07467 83.4375 5.73867 83.4589 5.424C83.4802 5.104 83.4909 4.82667 83.4909 4.592C83.4909 4.48533 83.4669 4.432 83.4189 4.432C83.3655 4.432 83.2882 4.48533 83.1869 4.592C83.0855 4.69333 82.9655 4.82133 82.8269 4.976L82.6909 4.848C82.7869 4.72533 82.9042 4.58667 83.0429 4.432C83.1815 4.272 83.3282 4.12267 83.4829 3.984C83.6375 3.84533 83.7815 3.744 83.9149 3.68C83.9469 3.74933 83.9709 3.84 83.9869 3.952C84.0029 4.05867 84.0109 4.17867 84.0109 4.312C84.0109 4.56267 84.0002 4.85067 83.9789 5.176C83.9575 5.50133 83.9309 5.84533 83.8989 6.208C83.8669 6.57067 83.8322 6.93333 83.7949 7.296C83.7629 7.65867 83.7362 8.00533 83.7149 8.336C83.6935 8.66133 83.6829 8.952 83.6829 9.208C83.6829 9.26667 83.6909 9.32533 83.7069 9.384C83.7282 9.44267 83.7655 9.472 83.8189 9.472C83.9362 9.472 84.1389 9.31467 84.4269 9L84.5549 9.128C84.4642 9.24533 84.3469 9.37067 84.2029 9.504C84.0589 9.632 83.9095 9.752 83.7549 9.864C83.6002 9.97067 83.4562 10.056 83.3229 10.12Z" fill="black"/>
  <path d="M48.608 22.156C48.024 22.156 47.48 22.042 46.976 21.814C46.476 21.586 46.038 21.272 45.662 20.872C45.29 20.468 45 20.002 44.792 19.474C44.584 18.946 44.48 18.384 44.48 17.788C44.48 17.148 44.594 16.564 44.822 16.036C45.05 15.508 45.36 15.052 45.752 14.668C46.144 14.28 46.588 13.982 47.084 13.774C47.584 13.562 48.104 13.456 48.644 13.456C49.236 13.456 49.816 13.594 50.384 13.87C50.952 14.146 51.46 14.584 51.908 15.184L50.432 15.976C50.176 15.68 49.89 15.46 49.574 15.316C49.262 15.172 48.944 15.1 48.62 15.1C48.296 15.1 47.984 15.166 47.684 15.298C47.388 15.43 47.124 15.618 46.892 15.862C46.66 16.106 46.476 16.394 46.34 16.726C46.204 17.058 46.136 17.424 46.136 17.824C46.136 18.196 46.2 18.544 46.328 18.868C46.46 19.192 46.64 19.476 46.868 19.72C47.096 19.964 47.36 20.156 47.66 20.296C47.964 20.432 48.288 20.5 48.632 20.5C48.844 20.5 49.052 20.47 49.256 20.41C49.464 20.346 49.662 20.254 49.85 20.134C50.038 20.014 50.21 19.864 50.366 19.684C50.526 19.504 50.666 19.296 50.786 19.06H49.484V17.62H52.736C52.76 18.24 52.67 18.824 52.466 19.372C52.262 19.92 51.97 20.404 51.59 20.824C51.21 21.24 50.766 21.566 50.258 21.802C49.75 22.038 49.2 22.156 48.608 22.156Z" fill="black"/>
  <path d="M56.36 22.156C55.808 22.156 55.304 22.014 54.848 21.73C54.396 21.446 54.034 21.066 53.762 20.59C53.494 20.11 53.36 19.58 53.36 19C53.36 18.56 53.438 18.15 53.594 17.77C53.75 17.386 53.964 17.05 54.236 16.762C54.512 16.47 54.832 16.242 55.196 16.078C55.56 15.914 55.948 15.832 56.36 15.832C56.912 15.832 57.414 15.974 57.866 16.258C58.322 16.542 58.684 16.924 58.952 17.404C59.224 17.884 59.36 18.416 59.36 19C59.36 19.436 59.282 19.844 59.126 20.224C58.97 20.604 58.754 20.94 58.478 21.232C58.206 21.52 57.888 21.746 57.524 21.91C57.164 22.074 56.776 22.156 56.36 22.156ZM56.36 20.5C56.616 20.5 56.846 20.432 57.05 20.296C57.254 20.156 57.414 19.972 57.53 19.744C57.646 19.516 57.704 19.268 57.704 19C57.704 18.724 57.642 18.472 57.518 18.244C57.398 18.012 57.236 17.828 57.032 17.692C56.828 17.556 56.604 17.488 56.36 17.488C56.108 17.488 55.88 17.558 55.676 17.698C55.472 17.838 55.31 18.022 55.19 18.25C55.074 18.478 55.016 18.728 55.016 19C55.016 19.284 55.076 19.54 55.196 19.768C55.32 19.992 55.484 20.17 55.688 20.302C55.892 20.434 56.116 20.5 56.36 20.5Z" fill="black"/>
  <path d="M60.2768 22L60.2708 16H61.9268L61.9328 16.444C62.1328 16.252 62.3668 16.102 62.6348 15.994C62.9068 15.886 63.1928 15.832 63.4928 15.832C63.7128 15.832 63.9328 15.864 64.1528 15.928L63.4988 17.602C63.3548 17.542 63.2088 17.512 63.0608 17.512C62.8528 17.512 62.6628 17.562 62.4908 17.662C62.3188 17.762 62.1828 17.898 62.0828 18.07C61.9828 18.238 61.9328 18.428 61.9328 18.64V22H60.2768Z" fill="black"/>
  <path d="M64.8354 22L64.8294 16H66.4854L66.4914 16.444C66.6914 16.252 66.9254 16.102 67.1934 15.994C67.4654 15.886 67.7514 15.832 68.0514 15.832C68.2714 15.832 68.4914 15.864 68.7114 15.928L68.0574 17.602C67.9134 17.542 67.7674 17.512 67.6194 17.512C67.4114 17.512 67.2214 17.562 67.0494 17.662C66.8774 17.762 66.7414 17.898 66.6414 18.07C66.5414 18.238 66.4914 18.428 66.4914 18.64V22H64.8354Z" fill="black"/>
  <path d="M71.7233 22.156C71.1713 22.156 70.6673 22.014 70.2113 21.73C69.7593 21.446 69.3973 21.064 69.1253 20.584C68.8573 20.104 68.7233 19.574 68.7233 18.994C68.7233 18.558 68.8013 18.15 68.9573 17.77C69.1133 17.386 69.3273 17.05 69.5993 16.762C69.8753 16.47 70.1953 16.242 70.5593 16.078C70.9233 15.914 71.3113 15.832 71.7233 15.832C72.1993 15.832 72.6333 15.934 73.0253 16.138C73.4213 16.342 73.7553 16.62 74.0273 16.972C74.3033 17.324 74.4993 17.722 74.6153 18.166C74.7353 18.61 74.7553 19.072 74.6753 19.552H70.5113C70.5633 19.728 70.6433 19.888 70.7513 20.032C70.8633 20.172 70.9993 20.284 71.1593 20.368C71.3233 20.452 71.5113 20.496 71.7233 20.5C71.9313 20.504 72.1233 20.456 72.2993 20.356C72.4753 20.256 72.6253 20.122 72.7493 19.954L74.4413 20.344C74.1973 20.876 73.8333 21.312 73.3493 21.652C72.8653 21.988 72.3233 22.156 71.7233 22.156ZM70.4513 18.328H73.0013C72.9493 18.128 72.8613 17.948 72.7373 17.788C72.6133 17.628 72.4633 17.502 72.2873 17.41C72.1153 17.318 71.9273 17.272 71.7233 17.272C71.5233 17.272 71.3353 17.318 71.1593 17.41C70.9873 17.502 70.8393 17.628 70.7153 17.788C70.5953 17.944 70.5073 18.124 70.4513 18.328Z" fill="black"/>
  <path d="M80.0909 13H81.7469V22H80.0909V21.364C79.9069 21.596 79.6789 21.786 79.4069 21.934C79.1349 22.082 78.8249 22.156 78.4769 22.156C78.0409 22.156 77.6329 22.074 77.2529 21.91C76.8729 21.746 76.5369 21.52 76.2449 21.232C75.9569 20.94 75.7309 20.604 75.5669 20.224C75.4029 19.844 75.3209 19.436 75.3209 19C75.3209 18.564 75.4029 18.156 75.5669 17.776C75.7309 17.396 75.9569 17.062 76.2449 16.774C76.5369 16.482 76.8729 16.254 77.2529 16.09C77.6329 15.926 78.0409 15.844 78.4769 15.844C78.8249 15.844 79.1349 15.918 79.4069 16.066C79.6789 16.21 79.9069 16.4 80.0909 16.636V13ZM78.5009 20.566C78.7729 20.566 79.0189 20.496 79.2389 20.356C79.4589 20.216 79.6329 20.028 79.7609 19.792C79.8889 19.552 79.9529 19.288 79.9529 19C79.9529 18.708 79.8889 18.444 79.7609 18.208C79.6329 17.972 79.4589 17.784 79.2389 17.644C79.0189 17.504 78.7729 17.434 78.5009 17.434C78.2249 17.434 77.9749 17.504 77.7509 17.644C77.5269 17.784 77.3489 17.974 77.2169 18.214C77.0849 18.45 77.0189 18.712 77.0189 19C77.0189 19.288 77.0849 19.552 77.2169 19.792C77.3529 20.028 77.5329 20.216 77.7569 20.356C77.9809 20.496 78.2289 20.566 78.5009 20.566Z" fill="black"/>
  <path d="M83.1927 16H84.8487V22H83.1927V16ZM84.0327 15.31C83.7927 15.31 83.5907 15.23 83.4267 15.07C83.2627 14.91 83.1807 14.712 83.1807 14.476C83.1807 14.24 83.2627 14.042 83.4267 13.882C83.5907 13.722 83.7907 13.642 84.0267 13.642C84.2627 13.642 84.4607 13.722 84.6207 13.882C84.7847 14.042 84.8667 14.24 84.8667 14.476C84.8667 14.712 84.7867 14.91 84.6267 15.07C84.4707 15.23 84.2727 15.31 84.0327 15.31Z" fill="black"/>
  <path d="M85.145 25V23.344C85.349 23.344 85.535 23.294 85.703 23.194C85.871 23.098 86.005 22.966 86.105 22.798C86.205 22.63 86.255 22.444 86.255 22.24V16H87.911V22.24C87.911 22.748 87.787 23.21 87.539 23.626C87.295 24.042 86.963 24.374 86.543 24.622C86.127 24.874 85.661 25 85.145 25ZM87.095 15.31C86.855 15.31 86.653 15.23 86.489 15.07C86.325 14.91 86.243 14.712 86.243 14.476C86.243 14.24 86.325 14.042 86.489 13.882C86.653 13.722 86.853 13.642 87.089 13.642C87.325 13.642 87.523 13.722 87.683 13.882C87.847 14.042 87.929 14.24 87.929 14.476C87.929 14.712 87.849 14.91 87.689 15.07C87.533 15.23 87.335 15.31 87.095 15.31Z" fill="black"/>
  <path d="M94.9247 22H93.0167L91.7447 19.81L91.0127 20.68V22H89.3567V13H91.0127V18.106L92.7767 16H94.9367L92.8787 18.466L94.9247 22Z" fill="black"/>
  </svg>
